<svg width="56" height="80" viewBox="0 0 56 80" fill="none" xmlns="http://www.w3.org/2000/svg">
<path d="M0 14.9676C0 6.7012 6.70122 0 14.9677 0H40.6502C48.9166 0 55.6178 6.7012 55.6178 14.9676C55.6178 20.2019 52.9309 24.8087 48.8611 27.4839C52.9309 30.1592 55.6178 34.7659 55.6178 40.0003C55.6178 48.2667 48.9166 54.968 40.6502 54.968H40.3252C36.4498 54.968 32.9184 53.4952 30.2603 51.0788V64.8698C30.2603 73.2464 23.3839 80 15.0483 80C6.80252 80 0 73.3192 0 65.0323C0 59.7983 2.68664 55.1917 6.75613 52.5164C2.68664 49.8411 0 45.2344 0 40.0003C0 34.7659 2.68688 30.1592 6.75664 27.4839C2.68688 24.8087 0 20.2019 0 14.9676ZM25.3575 29.9355H14.9677C9.40894 29.9355 4.90278 34.4417 4.90278 40.0003C4.90278 45.5375 9.37419 50.0303 14.9033 50.065C14.9247 50.0648 14.9461 50.0648 14.9677 50.0648H25.3575V29.9355ZM30.2603 40.0003C30.2603 45.5589 34.7664 50.0652 40.3252 50.0652H40.6502C46.2089 50.0652 50.715 45.5589 50.715 40.0003C50.715 34.4417 46.2089 29.9355 40.6502 29.9355H40.3252C34.7664 29.9355 30.2603 34.4417 30.2603 40.0003ZM14.9677 54.968C14.9461 54.968 14.9247 54.9678 14.9033 54.9678C9.37419 55.0023 4.90278 59.4952 4.90278 65.0323C4.90278 70.5706 9.46914 75.0972 15.0483 75.0972C20.7173 75.0972 25.3575 70.4978 25.3575 64.8698V54.968H14.9677ZM14.9677 4.90278C9.40894 4.90278 4.90278 9.40895 4.90278 14.9676C4.90278 20.5262 9.40894 25.0323 14.9677 25.0323H25.3575V4.90278H14.9677ZM30.2603 25.0323H40.6502C46.2089 25.0323 50.715 20.5262 50.715 14.9676C50.715 9.40895 46.2089 4.90278 40.6502 4.90278H30.2603V25.0323Z" fill="#97FAB8"/>
</svg>
