<svg width="81" height="80" viewBox="0 0 81 80" fill="none" xmlns="http://www.w3.org/2000/svg">
<path d="M78.8143 36.4375L43.8941 1.50836C42.9274 0.542526 41.6168 0 40.2503 0C38.8838 0 37.5732 0.542526 36.6065 1.50836L29.3456 8.76384L38.5458 17.964C43.378 16.3318 47.9531 20.9587 46.2941 25.7641L55.1621 34.6321C61.2747 32.525 66.0873 40.1679 61.4962 44.7555C56.7657 49.486 48.9585 44.243 51.496 38.0875L43.2191 29.8213V51.5806C47.737 53.82 47.1941 59.054 44.8405 61.4022C43.6906 62.5515 42.1314 63.1971 40.5056 63.1971C38.8799 63.1971 37.3207 62.5515 36.1707 61.4022C33.0332 58.2593 34.1939 53.0253 38.1797 51.4021V29.4374C34.4654 27.9177 33.7868 23.948 34.8511 21.4016L25.7813 12.321L1.83087 36.275C0.864605 37.2415 0.321777 38.5522 0.321777 39.9188C0.321777 41.2855 0.864605 42.5962 1.83087 43.5626L36.7618 78.4918C37.7282 79.4575 39.0385 80 40.4047 80C41.771 80 43.0813 79.4575 44.0477 78.4918L78.8143 43.7251C79.7806 42.7587 80.3234 41.448 80.3234 40.0813C80.3234 38.7147 79.7806 37.404 78.8143 36.4375V36.4375Z" fill="#97FAB8"/>
</svg>
