<svg width="83" height="80" viewBox="0 0 83 80" fill="none" xmlns="http://www.w3.org/2000/svg">
<path d="M27.6989 64.4159C27.6989 64.7467 27.3194 65.0114 26.8408 65.0114C26.2963 65.061 25.9167 64.7964 25.9167 64.4159C25.9167 64.085 26.2963 63.8204 26.7748 63.8204C27.2699 63.7707 27.6989 64.0354 27.6989 64.4159ZM22.567 63.6715C22.4515 64.0023 22.7815 64.3828 23.2765 64.482C23.7056 64.6475 24.2006 64.482 24.2996 64.1512C24.3986 63.8204 24.0851 63.4399 23.5901 63.291C23.161 63.1752 22.6825 63.3406 22.567 63.6715ZM29.8606 63.3903C29.382 63.5061 29.052 63.8204 29.1015 64.2008C29.151 64.5317 29.58 64.7467 30.0751 64.6309C30.5536 64.5151 30.8836 64.2008 30.8341 63.87C30.7846 63.5557 30.3391 63.3406 29.8606 63.3903ZM40.7184 0C17.8311 0 0.323242 17.4191 0.323242 40.3633C0.323242 58.7088 11.8411 74.4075 28.2929 79.9326C30.4051 80.3131 31.1477 79.0062 31.1477 77.931C31.1477 76.9054 31.0982 71.2479 31.0982 67.774C31.0982 67.774 19.5472 70.2553 17.1216 62.8444C17.1216 62.8444 15.2404 58.0305 12.5342 56.7899C12.5342 56.7899 8.7554 54.1927 12.7982 54.2423C12.7982 54.2423 16.907 54.5732 19.1677 58.5103C22.7815 64.8956 28.8375 63.0594 31.1972 61.9676C31.5767 59.3208 32.6493 57.4846 33.8374 56.3928C24.6131 55.3672 15.3064 54.0273 15.3064 38.1136C15.3064 33.5644 16.5605 31.2816 19.2007 28.3701C18.7717 27.2949 17.3691 22.8615 19.6298 17.1379C23.0785 16.0626 31.0156 21.6043 31.0156 21.6043C34.3159 20.6779 37.8637 20.1982 41.3785 20.1982C44.8932 20.1982 48.441 20.6779 51.7413 21.6043C51.7413 21.6043 59.6784 16.0461 63.1272 17.1379C65.3878 22.8781 63.9852 27.2949 63.5562 28.3701C66.1964 31.2981 67.8135 33.581 67.8135 38.1136C67.8135 54.0769 58.0943 55.3507 48.87 56.3928C50.3882 57.6997 51.6753 60.181 51.6753 64.0685C51.6753 69.6433 51.6258 76.5414 51.6258 77.8979C51.6258 78.9731 52.3848 80.28 54.4805 79.8995C70.9818 74.4075 82.1697 58.7088 82.1697 40.3633C82.1697 17.4191 63.6057 0 40.7184 0ZM16.3625 57.0545C16.148 57.22 16.1975 57.6004 16.478 57.9147C16.742 58.1794 17.1216 58.2952 17.3361 58.0802C17.5506 57.9147 17.5011 57.5343 17.2206 57.22C16.9565 56.9553 16.577 56.8395 16.3625 57.0545ZM14.5804 55.7146C14.4649 55.9297 14.6299 56.1943 14.9599 56.3598C15.2239 56.5252 15.5539 56.4756 15.6694 56.244C15.785 56.0289 15.6199 55.7642 15.2899 55.5988C14.9599 55.4996 14.6959 55.5492 14.5804 55.7146ZM19.9268 61.6037C19.6628 61.8187 19.7618 62.315 20.1413 62.6293C20.5208 63.0098 20.9994 63.0594 21.2139 62.7947C21.4284 62.5797 21.3294 62.0834 20.9994 61.7691C20.6363 61.3886 20.1413 61.339 19.9268 61.6037ZM18.0456 59.172C17.7816 59.3374 17.7816 59.7675 18.0456 60.148C18.3097 60.5284 18.7552 60.6939 18.9697 60.5284C19.2337 60.3134 19.2337 59.8833 18.9697 59.5028C18.7387 59.1223 18.3097 58.9569 18.0456 59.172Z" fill="#97FAB8"/>
</svg>
