<svg width="81" height="80" viewBox="0 0 81 80" fill="none" xmlns="http://www.w3.org/2000/svg">
<path d="M72.0936 0H9.23647C4.50432 0 0.665039 3.83929 0.665039 8.57143V71.4286C0.665039 76.1607 4.50432 80 9.23647 80H72.0936C76.8258 80 80.665 76.1607 80.665 71.4286V8.57143C80.665 3.83929 76.8258 0 72.0936 0ZM44.2008 62.3929C44.2008 70.1786 39.6293 73.7321 32.9686 73.7321C26.9508 73.7321 23.4686 70.625 21.6829 66.8571L27.8079 63.1607C28.9865 65.25 30.0579 67.0179 32.6472 67.0179C35.1115 67.0179 36.6829 66.0536 36.6829 62.2857V36.7321H44.2008V62.3929V62.3929ZM61.9865 73.7321C55.0043 73.7321 50.4865 70.4107 48.29 66.0536L54.415 62.5179C56.0222 65.1429 58.1293 67.0893 61.8258 67.0893C64.9329 67.0893 66.9329 65.5357 66.9329 63.375C66.9329 60.8036 64.8972 59.8929 61.4508 58.375L59.5758 57.5714C54.1472 55.2679 50.5579 52.3571 50.5579 46.2321C50.5579 40.5893 54.8615 36.3036 61.5579 36.3036C66.3436 36.3036 69.7722 37.9643 72.2365 42.3214L66.3793 46.0714C65.0936 43.7679 63.7008 42.8571 61.54 42.8571C59.3436 42.8571 57.9508 44.25 57.9508 46.0714C57.9508 48.3214 59.3436 49.2321 62.5758 50.6429L64.4508 51.4464C70.8436 54.1786 74.4329 56.9821 74.4329 63.2679C74.4329 70.0179 69.1115 73.7321 61.9865 73.7321V73.7321Z" fill="#97FAB8"/>
</svg>
