<svg width="108" height="80" viewBox="0 0 108 80" fill="none" xmlns="http://www.w3.org/2000/svg">
<path d="M50.967 60.481C50.917 60.581 50.867 60.661 50.967 60.481V60.481ZM92.4853 45.9822C89.1335 45.9811 85.8263 46.7509 82.8194 48.232C81.8362 46.2489 80.8196 44.5157 80.6529 43.2158C80.4529 41.6992 80.2363 40.7993 80.4696 38.9994C80.7029 37.1996 81.7528 34.6498 81.7362 34.4665C81.7195 34.2832 81.5029 33.3666 79.353 33.3499C77.2032 33.3332 75.3534 33.7665 75.1384 34.3332C74.7587 35.3687 74.4633 36.4331 74.2551 37.5162C73.8718 39.4661 69.9571 46.4322 67.7406 50.0652C67.0074 48.6487 66.3908 47.3988 66.2574 46.3988C66.0574 44.8823 65.8408 43.9824 66.0741 42.1825C66.3074 40.3827 67.3573 37.8329 67.3407 37.6496C67.324 37.4662 67.1074 36.5496 64.9592 36.533C62.811 36.5163 60.9595 36.9496 60.7429 37.5162C60.5262 38.0829 60.2929 39.4161 59.8596 40.6993C59.4263 41.9825 54.2117 53.5816 52.8469 56.598C52.1469 58.1312 51.547 59.3645 51.1137 60.1977C51.047 60.331 50.997 60.4144 50.9637 60.481C51.0137 60.3977 51.047 60.3144 51.047 60.3477C50.6804 61.0643 50.4637 61.4643 50.4637 61.4643V61.481C50.1804 62.0142 49.8638 62.4975 49.7138 62.4975C49.6138 62.4975 49.3971 61.0976 49.7638 59.1811C50.547 55.1481 52.3969 48.882 52.3802 48.6653C52.3636 48.5487 52.7302 47.4654 51.1637 46.8821C49.6471 46.3322 49.0972 47.2488 48.9638 47.2488C48.8305 47.2488 48.7305 47.5821 48.7305 47.5821C48.7305 47.5821 50.4137 40.516 45.4991 40.516C42.4327 40.516 38.1664 43.8824 36.0699 46.9321C34.7533 47.6487 31.9036 49.1986 28.9038 50.8485C27.7539 51.4818 26.5707 52.1317 25.4541 52.7483C25.3708 52.665 25.3041 52.5817 25.2208 52.4983C19.2563 46.1322 8.24383 41.6326 8.71046 33.0833C8.87711 29.9669 9.96035 21.7842 29.8871 11.8517C46.2191 3.71899 59.2763 5.95214 61.5245 10.9184C64.7576 18.0012 54.5434 31.1834 37.5831 33.0833C31.1186 33.7999 27.7206 31.3001 26.8706 30.3668C25.9874 29.3836 25.8541 29.3336 25.5208 29.5169C24.9708 29.8169 25.3208 30.6835 25.5208 31.2001C26.0207 32.5166 28.1039 34.8498 31.6519 36.0164C34.7683 37.0329 42.3477 37.5996 51.512 34.0499C61.8078 30.0835 69.8221 19.0344 67.4723 9.78516C65.0792 0.385928 49.4938 -2.69715 34.7567 2.53575C25.9757 5.65217 16.4798 10.5518 9.64871 16.9346C1.53437 24.534 0.236147 31.1501 0.769437 33.9165C2.66762 43.7324 16.1965 50.1319 21.6111 54.8648C21.3444 55.0148 21.0944 55.1481 20.8611 55.2815C18.1464 56.6313 7.83219 62.0309 5.25074 67.7304C2.33431 74.1966 5.73403 78.8295 7.96552 79.4628C14.9299 81.396 22.061 77.9129 25.8924 72.1967C29.7237 66.4805 29.2588 59.0145 27.4923 55.6148C27.4756 55.5648 27.4423 55.5314 27.4256 55.4814C28.1255 55.0648 28.8421 54.6482 29.5588 54.2315C30.9403 53.4149 32.2902 52.665 33.4734 52.0151C32.8068 53.8149 32.3235 55.9814 32.0736 59.1145C31.7736 62.7808 33.2901 67.5305 35.2566 69.397C36.1232 70.2136 37.1715 70.2302 37.8214 70.2302C40.1212 70.2302 41.1545 68.3304 42.3027 66.0639C43.7193 63.2975 44.9692 60.0811 44.9692 60.0811C44.9692 60.0811 43.4026 68.7804 47.6856 68.7804C49.2505 68.7804 50.817 66.7639 51.5186 65.7306V65.7473C51.5186 65.7473 51.552 65.6806 51.6353 65.5473C51.8019 65.2973 51.8853 65.1473 51.8853 65.1473V65.0973C52.5186 64.0141 53.9018 61.5309 55.9833 57.4313C58.683 52.1317 61.2645 45.5156 61.2645 45.5156C61.514 46.97 61.8591 48.4063 62.2978 49.8152C62.7644 51.3984 63.7476 53.1316 64.5309 54.8148C63.8976 55.6814 63.5143 56.1814 63.5143 56.1814C63.5155 56.1942 63.5215 56.2061 63.531 56.2147C63.031 56.8813 62.4644 57.5979 61.8811 58.2979C59.7496 60.831 57.2148 63.7308 56.8815 64.564C56.4816 65.5473 56.5816 66.2806 57.3482 66.8472C57.9148 67.2805 58.9147 67.3471 59.9629 67.2638C61.8795 67.1305 63.2293 66.6639 63.8793 66.3639C65.0775 65.9342 66.21 65.3397 67.244 64.5974C69.3272 63.0642 70.5937 60.8643 70.4771 57.9646C70.4104 56.3647 69.8938 54.7648 69.2605 53.265C69.4438 52.9983 69.6438 52.715 69.8271 52.4317C73.1252 47.6154 75.675 42.3292 75.675 42.3292C75.9244 43.7836 76.2696 45.2199 76.7082 46.6288C77.1082 47.9787 77.8898 49.4619 78.6064 50.9118C75.5083 53.4283 73.5918 56.3447 72.9252 58.2612C71.692 61.8109 72.6586 63.4108 74.4751 63.7774C75.2917 63.9441 76.4583 63.5608 77.3249 63.1941C78.6119 62.7655 79.8254 62.1416 80.9229 61.3443C83.0061 59.8111 85.0209 57.6613 84.8876 54.7448C84.8376 53.4283 84.4709 52.1117 83.9877 50.8451C86.6041 49.7452 90.0022 49.1453 94.3351 49.6452C103.614 50.7285 105.431 56.528 105.081 58.9445C104.731 61.361 102.781 62.7108 102.131 63.1108C101.481 63.5108 101.281 63.6608 101.331 63.9607C101.415 64.394 101.715 64.3774 102.265 64.2774C103.031 64.1441 107.129 62.3109 107.312 57.8279C107.579 52.1617 102.131 45.9289 92.4803 45.9789L92.4853 45.9822ZM20.9611 70.0969C17.8964 73.4466 13.5967 74.7132 11.7485 73.6466C9.76537 72.4934 10.5486 67.5638 14.33 63.9941C16.6298 61.8276 19.5946 59.8278 21.5611 58.5945C22.011 58.3279 22.661 57.9279 23.4609 57.4446C23.5942 57.3613 23.6609 57.328 23.6609 57.328C23.8109 57.228 23.9775 57.1446 24.1442 57.0446C25.5258 62.1109 24.1942 66.5772 20.9611 70.0936V70.0969ZM43.3526 54.8648C42.2861 57.4813 40.0379 64.1474 38.6713 63.7974C37.5048 63.4975 36.7882 58.4145 38.438 53.4149C39.2713 50.8985 41.0378 47.8987 42.0877 46.7322C43.7693 44.849 45.6191 44.249 46.0524 44.999C46.6357 45.9822 44.0192 53.2316 43.3526 54.8648ZM61.8511 63.6974C61.4012 63.9307 60.9845 64.0807 60.7845 63.9641C60.6346 63.8808 60.9679 63.5641 60.9679 63.5641C60.9679 63.5641 63.2843 61.081 64.2009 59.9477C64.7342 59.2811 65.3508 58.4979 66.0158 57.6313C66.0158 57.7146 66.0324 57.7979 66.0324 57.8979C66.0108 60.881 63.146 62.8975 61.8461 63.6974H61.8511ZM76.1133 60.4477C75.78 60.2144 75.83 59.4311 76.9466 56.998C77.3799 56.0481 78.3781 54.4482 80.113 52.915C80.3094 53.4954 80.4161 54.1023 80.4296 54.7148C80.4129 58.4645 77.7298 59.8644 76.115 60.4477H76.1133Z" fill="#97FAB8"/>
</svg>
