<svg width="81" height="80" viewBox="0 0 81 80" fill="none" xmlns="http://www.w3.org/2000/svg">
<path d="M80.7915 14.1549V65.8452C80.7915 68.3916 79.2076 70.6573 76.8215 71.4994L59.137 79.8003L60.741 58.0455V21.9545L59.137 0.199707L76.8215 8.50063C79.2076 9.34275 80.7915 11.6085 80.7915 14.1549Z" fill="#97FAB8"/>
<path d="M10.6146 59.8419L60.741 21.9544V2.6117C60.741 0.209641 57.7695 -0.91319 56.1795 0.887349L1.90869 50.5044C0.104146 52.1686 0.206404 55.0499 2.12323 56.5837C2.12323 56.5837 4.77793 59.054 5.73835 59.7397C7.21407 60.7923 9.15295 60.9126 10.6146 59.8419Z" fill="#7DDF9E"/>
<path d="M10.6146 20.1581L60.741 58.0456V77.3883C60.741 79.7904 57.7695 80.9132 56.1795 79.1127L1.90869 29.4956C0.104146 27.8314 0.206404 24.9502 2.12323 23.4163C2.12323 23.4163 4.77793 20.9461 5.73835 20.2603C7.21407 19.2077 9.15295 19.0874 10.6146 20.1581Z" fill="#7DDF9E"/>
</svg>
