<svg width="80" height="80" viewBox="0 0 80 80" fill="none" xmlns="http://www.w3.org/2000/svg">
<path d="M8.66129 26.0323L25.0323 70.871C13.5806 65.3226 5.69355 53.5806 5.69355 40C5.69355 35.0161 6.75806 30.3064 8.66129 26.0323V26.0323ZM63.1613 38.2742C63.1613 34.0323 61.6452 31.0968 60.3387 28.8065C58.5968 25.9839 56.9677 23.5806 56.9677 20.7581C56.9677 17.5968 59.3548 14.6613 62.7258 14.6613C62.871 14.6613 63.0161 14.6774 63.1774 14.6935C57.0645 9.09677 48.9355 5.67742 40 5.67742C28.0161 5.67742 17.4677 11.8226 11.3226 21.1452C12.129 21.1774 12.8871 21.1935 13.5323 21.1935C17.1129 21.1935 22.6774 20.7581 22.6774 20.7581C24.5323 20.6452 24.7419 23.371 22.9032 23.5806C22.9032 23.5806 21.0484 23.7903 18.9839 23.9032L31.4839 61.0645L39 38.5484L33.6613 23.9032C31.8065 23.7903 30.0645 23.5806 30.0645 23.5806C28.2097 23.4677 28.4355 20.6452 30.2742 20.7581C30.2742 20.7581 35.9355 21.1935 39.3064 21.1935C42.8871 21.1935 48.4516 20.7581 48.4516 20.7581C50.3064 20.6452 50.5161 23.371 48.6774 23.5806C48.6774 23.5806 46.8226 23.7903 44.7581 23.9032L57.1613 60.7903L60.5806 49.3548C62.0323 44.6129 63.1613 41.2097 63.1613 38.2742ZM40.5968 43L30.3064 72.9194C33.3871 73.8226 36.629 74.3226 40 74.3226C44 74.3226 47.8226 73.629 51.3871 72.371C51.2903 72.2258 51.2097 72.0645 51.1452 71.9032L40.5968 43ZM70.1129 23.5323C70.2581 24.629 70.3387 25.7903 70.3387 27.0645C70.3387 30.5484 69.6935 34.4516 67.7258 39.3548L57.2419 69.6613C67.4516 63.7097 74.3065 52.6613 74.3065 40C74.3065 34.0323 72.7903 28.4194 70.1129 23.5323V23.5323ZM80 40C80 62.0645 62.0484 80 40 80C17.9355 80 0 62.0484 0 40C0 17.9355 17.9355 0 40 0C62.0484 0 80 17.9355 80 40ZM78.1613 40C78.1613 18.9516 61.0323 1.83871 40 1.83871C18.9516 1.83871 1.83871 18.9516 1.83871 40C1.83871 61.0484 18.9677 78.1613 40 78.1613C61.0484 78.1613 78.1613 61.0484 78.1613 40Z" fill="#97FAB8"/>
</svg>
